<svg width="97" height="31" viewBox="0 0 97 31" fill="none" xmlns="http://www.w3.org/2000/svg">
<path d="M30.84 22.6001V19.7001L38.64 10.6201L39.22 12.2601H31.04V8.6001H43.38V11.5001L35.58 20.5801L35 18.9401H43.7V22.6001H30.84ZM51.6481 22.6001V20.6601L51.3281 20.1401V16.4601C51.3281 15.9268 51.1615 15.5201 50.8281 15.2401C50.5081 14.9601 49.9815 14.8201 49.2481 14.8201C48.7548 14.8201 48.2548 14.9001 47.7481 15.0601C47.2415 15.2068 46.8081 15.4134 46.4481 15.6801L45.0081 12.7001C45.6481 12.3001 46.4148 11.9934 47.3081 11.7801C48.2015 11.5668 49.0748 11.4601 49.9281 11.4601C51.8081 11.4601 53.2615 11.8801 54.2881 12.7201C55.3281 13.5601 55.8481 14.8934 55.8481 16.7201V22.6001H51.6481ZM48.5481 22.8001C47.6548 22.8001 46.9081 22.6468 46.3081 22.3401C45.7081 22.0334 45.2548 21.6268 44.9481 21.1201C44.6415 20.6001 44.4881 20.0268 44.4881 19.4001C44.4881 18.6934 44.6681 18.0934 45.0281 17.6001C45.3881 17.1068 45.9348 16.7334 46.6681 16.4801C47.4148 16.2268 48.3548 16.1001 49.4881 16.1001H51.7681V18.2801H50.2081C49.7281 18.2801 49.3748 18.3601 49.1481 18.5201C48.9348 18.6668 48.8281 18.8934 48.8281 19.2001C48.8281 19.4534 48.9215 19.6668 49.1081 19.8401C49.3081 20.0001 49.5748 20.0801 49.9081 20.0801C50.2148 20.0801 50.4948 20.0001 50.7481 19.8401C51.0148 19.6668 51.2081 19.4001 51.3281 19.0401L51.9081 20.3801C51.7348 21.1934 51.3681 21.8001 50.8081 22.2001C50.2481 22.6001 49.4948 22.8001 48.5481 22.8001ZM65.1016 22.8001C64.1549 22.8001 63.3682 22.6001 62.7416 22.2001C62.1282 21.7868 61.6749 21.1668 61.3816 20.3401C61.0882 19.5001 60.9416 18.4334 60.9416 17.1401C60.9416 15.8201 61.0749 14.7468 61.3416 13.9201C61.6216 13.0801 62.0682 12.4601 62.6816 12.0601C63.2949 11.6601 64.1016 11.4601 65.1016 11.4601C66.0616 11.4601 66.9416 11.6934 67.7416 12.1601C68.5416 12.6134 69.1816 13.2668 69.6616 14.1201C70.1416 14.9601 70.3816 15.9668 70.3816 17.1401C70.3816 18.3134 70.1416 19.3268 69.6616 20.1801C69.1816 21.0201 68.5416 21.6668 67.7416 22.1201C66.9416 22.5734 66.0616 22.8001 65.1016 22.8001ZM57.8016 26.4801V11.6601H62.1016V13.1401L62.1216 17.1401L62.3216 21.1401V26.4801H57.8016ZM64.0216 19.2801C64.3549 19.2801 64.6549 19.2001 64.9216 19.0401C65.1882 18.8801 65.4016 18.6401 65.5616 18.3201C65.7216 18.0001 65.8016 17.6068 65.8016 17.1401C65.8016 16.6601 65.7216 16.2601 65.5616 15.9401C65.4016 15.6201 65.1882 15.3801 64.9216 15.2201C64.6549 15.0601 64.3549 14.9801 64.0216 14.9801C63.6882 14.9801 63.3882 15.0601 63.1216 15.2201C62.8549 15.3801 62.6416 15.6201 62.4816 15.9401C62.3216 16.2601 62.2416 16.6601 62.2416 17.1401C62.2416 17.6068 62.3216 18.0001 62.4816 18.3201C62.6416 18.6401 62.8549 18.8801 63.1216 19.0401C63.3882 19.2001 63.6882 19.2801 64.0216 19.2801ZM79.1055 22.8001C78.1588 22.8001 77.3721 22.6001 76.7455 22.2001C76.1321 21.7868 75.6788 21.1668 75.3855 20.3401C75.0921 19.5001 74.9455 18.4334 74.9455 17.1401C74.9455 15.8201 75.0788 14.7468 75.3455 13.9201C75.6255 13.0801 76.0721 12.4601 76.6855 12.0601C77.2988 11.6601 78.1055 11.4601 79.1055 11.4601C80.0655 11.4601 80.9455 11.6934 81.7455 12.1601C82.5455 12.6134 83.1855 13.2668 83.6655 14.1201C84.1455 14.9601 84.3855 15.9668 84.3855 17.1401C84.3855 18.3134 84.1455 19.3268 83.6655 20.1801C83.1855 21.0201 82.5455 21.6668 81.7455 22.1201C80.9455 22.5734 80.0655 22.8001 79.1055 22.8001ZM71.8055 26.4801V11.6601H76.1055V13.1401L76.1255 17.1401L76.3255 21.1401V26.4801H71.8055ZM78.0255 19.2801C78.3588 19.2801 78.6588 19.2001 78.9255 19.0401C79.1921 18.8801 79.4055 18.6401 79.5655 18.3201C79.7255 18.0001 79.8055 17.6068 79.8055 17.1401C79.8055 16.6601 79.7255 16.2601 79.5655 15.9401C79.4055 15.6201 79.1921 15.3801 78.9255 15.2201C78.6588 15.0601 78.3588 14.9801 78.0255 14.9801C77.6921 14.9801 77.3921 15.0601 77.1255 15.2201C76.8588 15.3801 76.6455 15.6201 76.4855 15.9401C76.3255 16.2601 76.2455 16.6601 76.2455 17.1401C76.2455 17.6068 76.3255 18.0001 76.4855 18.3201C76.6455 18.6401 76.8588 18.8801 77.1255 19.0401C77.3921 19.2001 77.6921 19.2801 78.0255 19.2801ZM90.0894 22.8001C89.1561 22.8001 88.2361 22.7001 87.3294 22.5001C86.4227 22.3001 85.6894 22.0401 85.1294 21.7201L86.3694 18.7401C86.8894 19.0468 87.4894 19.2868 88.1694 19.4601C88.8627 19.6334 89.5361 19.7201 90.1894 19.7201C90.7361 19.7201 91.1027 19.6734 91.2894 19.5801C91.4894 19.4868 91.5894 19.3601 91.5894 19.2001C91.5894 19.0401 91.4761 18.9268 91.2494 18.8601C91.0227 18.7801 90.7227 18.7201 90.3494 18.6801C89.9761 18.6401 89.5627 18.5934 89.1094 18.5401C88.6694 18.4734 88.2227 18.3801 87.7694 18.2601C87.3161 18.1401 86.9027 17.9601 86.5294 17.7201C86.1561 17.4801 85.8561 17.1601 85.6294 16.7601C85.4027 16.3468 85.2894 15.8268 85.2894 15.2001C85.2894 14.5068 85.4961 13.8801 85.9094 13.3201C86.3361 12.7601 86.9627 12.3134 87.7894 11.9801C88.6294 11.6334 89.6627 11.4601 90.8894 11.4601C91.6894 11.4601 92.4894 11.5334 93.2894 11.6801C94.0894 11.8268 94.7761 12.0534 95.3494 12.3601L94.1094 15.3401C93.5494 15.0334 92.9961 14.8268 92.4494 14.7201C91.9161 14.6001 91.4161 14.5401 90.9494 14.5401C90.3761 14.5401 89.9827 14.5934 89.7694 14.7001C89.5694 14.8068 89.4694 14.9268 89.4694 15.0601C89.4694 15.2201 89.5827 15.3401 89.8094 15.4201C90.0361 15.5001 90.3361 15.5601 90.7094 15.6001C91.0827 15.6401 91.4894 15.6934 91.9294 15.7601C92.3827 15.8134 92.8294 15.9068 93.2694 16.0401C93.7227 16.1601 94.1361 16.3401 94.5094 16.5801C94.8827 16.8201 95.1827 17.1468 95.4094 17.5601C95.6361 17.9601 95.7494 18.4734 95.7494 19.1001C95.7494 19.7534 95.5427 20.3668 95.1294 20.9401C94.7161 21.5001 94.0894 21.9534 93.2494 22.3001C92.4094 22.6334 91.3561 22.8001 90.0894 22.8001Z" fill="black"/>
<path d="M6 18.4502L20.4 0.000195179L15 18.45L6 18.4502Z" fill="#14213D"/>
<path d="M14.4 12.4502L2.58964e-05 30.9002L5.40002 12.4504L14.4 12.4502Z" fill="#14213D"/>
</svg>
