<svg width="94" height="29" viewBox="0 0 94 29" fill="none" xmlns="http://www.w3.org/2000/svg">
<path d="M27.84 21.5996V18.6996L35.64 9.61961L36.22 11.2596H28.04V7.59961H40.38V10.4996L32.58 19.5796L32 17.9396H40.7V21.5996H27.84ZM48.6481 21.5996V19.6596L48.3281 19.1396V15.4596C48.3281 14.9263 48.1614 14.5196 47.8281 14.2396C47.5081 13.9596 46.9814 13.8196 46.2481 13.8196C45.7547 13.8196 45.2547 13.8996 44.7481 14.0596C44.2414 14.2063 43.8081 14.4129 43.4481 14.6796L42.0081 11.6996C42.6481 11.2996 43.4147 10.9929 44.3081 10.7796C45.2014 10.5663 46.0747 10.4596 46.9281 10.4596C48.8081 10.4596 50.2614 10.8796 51.2881 11.7196C52.3281 12.5596 52.8481 13.8929 52.8481 15.7196V21.5996H48.6481ZM45.5481 21.7996C44.6547 21.7996 43.9081 21.6463 43.3081 21.3396C42.7081 21.0329 42.2547 20.6263 41.9481 20.1196C41.6414 19.5996 41.4881 19.0263 41.4881 18.3996C41.4881 17.6929 41.6681 17.0929 42.0281 16.5996C42.3881 16.1063 42.9347 15.7329 43.6681 15.4796C44.4147 15.2263 45.3547 15.0996 46.4881 15.0996H48.7681V17.2796H47.2081C46.7281 17.2796 46.3747 17.3596 46.1481 17.5196C45.9347 17.6663 45.8281 17.8929 45.8281 18.1996C45.8281 18.4529 45.9214 18.6663 46.1081 18.8396C46.3081 18.9996 46.5747 19.0796 46.9081 19.0796C47.2147 19.0796 47.4947 18.9996 47.7481 18.8396C48.0147 18.6663 48.2081 18.3996 48.3281 18.0396L48.9081 19.3796C48.7347 20.1929 48.3681 20.7996 47.8081 21.1996C47.2481 21.5996 46.4947 21.7996 45.5481 21.7996ZM62.1015 21.7996C61.1548 21.7996 60.3682 21.5996 59.7415 21.1996C59.1282 20.7863 58.6748 20.1663 58.3815 19.3396C58.0882 18.4996 57.9415 17.4329 57.9415 16.1396C57.9415 14.8196 58.0748 13.7463 58.3415 12.9196C58.6215 12.0796 59.0682 11.4596 59.6815 11.0596C60.2948 10.6596 61.1015 10.4596 62.1015 10.4596C63.0615 10.4596 63.9415 10.6929 64.7415 11.1596C65.5415 11.6129 66.1815 12.2663 66.6615 13.1196C67.1415 13.9596 67.3815 14.9663 67.3815 16.1396C67.3815 17.3129 67.1415 18.3263 66.6615 19.1796C66.1815 20.0196 65.5415 20.6663 64.7415 21.1196C63.9415 21.5729 63.0615 21.7996 62.1015 21.7996ZM54.8015 25.4796V10.6596H59.1015V12.1396L59.1215 16.1396L59.3215 20.1396V25.4796H54.8015ZM61.0215 18.2796C61.3548 18.2796 61.6548 18.1996 61.9215 18.0396C62.1882 17.8796 62.4015 17.6396 62.5615 17.3196C62.7215 16.9996 62.8015 16.6063 62.8015 16.1396C62.8015 15.6596 62.7215 15.2596 62.5615 14.9396C62.4015 14.6196 62.1882 14.3796 61.9215 14.2196C61.6548 14.0596 61.3548 13.9796 61.0215 13.9796C60.6882 13.9796 60.3882 14.0596 60.1215 14.2196C59.8548 14.3796 59.6415 14.6196 59.4815 14.9396C59.3215 15.2596 59.2415 15.6596 59.2415 16.1396C59.2415 16.6063 59.3215 16.9996 59.4815 17.3196C59.6415 17.6396 59.8548 17.8796 60.1215 18.0396C60.3882 18.1996 60.6882 18.2796 61.0215 18.2796ZM76.1054 21.7996C75.1588 21.7996 74.3721 21.5996 73.7454 21.1996C73.1321 20.7863 72.6788 20.1663 72.3854 19.3396C72.0921 18.4996 71.9454 17.4329 71.9454 16.1396C71.9454 14.8196 72.0788 13.7463 72.3454 12.9196C72.6254 12.0796 73.0721 11.4596 73.6854 11.0596C74.2988 10.6596 75.1054 10.4596 76.1054 10.4596C77.0654 10.4596 77.9454 10.6929 78.7454 11.1596C79.5454 11.6129 80.1854 12.2663 80.6654 13.1196C81.1454 13.9596 81.3854 14.9663 81.3854 16.1396C81.3854 17.3129 81.1454 18.3263 80.6654 19.1796C80.1854 20.0196 79.5454 20.6663 78.7454 21.1196C77.9454 21.5729 77.0654 21.7996 76.1054 21.7996ZM68.8054 25.4796V10.6596H73.1054V12.1396L73.1254 16.1396L73.3254 20.1396V25.4796H68.8054ZM75.0254 18.2796C75.3588 18.2796 75.6588 18.1996 75.9254 18.0396C76.1921 17.8796 76.4054 17.6396 76.5654 17.3196C76.7254 16.9996 76.8054 16.6063 76.8054 16.1396C76.8054 15.6596 76.7254 15.2596 76.5654 14.9396C76.4054 14.6196 76.1921 14.3796 75.9254 14.2196C75.6588 14.0596 75.3588 13.9796 75.0254 13.9796C74.6921 13.9796 74.3921 14.0596 74.1254 14.2196C73.8588 14.3796 73.6454 14.6196 73.4854 14.9396C73.3254 15.2596 73.2454 15.6596 73.2454 16.1396C73.2454 16.6063 73.3254 16.9996 73.4854 17.3196C73.6454 17.6396 73.8588 17.8796 74.1254 18.0396C74.3921 18.1996 74.6921 18.2796 75.0254 18.2796ZM87.0893 21.7996C86.156 21.7996 85.236 21.6996 84.3293 21.4996C83.4227 21.2996 82.6893 21.0396 82.1293 20.7196L83.3693 17.7396C83.8893 18.0463 84.4893 18.2863 85.1693 18.4596C85.8627 18.6329 86.536 18.7196 87.1893 18.7196C87.736 18.7196 88.1027 18.6729 88.2893 18.5796C88.4893 18.4863 88.5893 18.3596 88.5893 18.1996C88.5893 18.0396 88.476 17.9263 88.2493 17.8596C88.0227 17.7796 87.7227 17.7196 87.3493 17.6796C86.976 17.6396 86.5627 17.5929 86.1093 17.5396C85.6693 17.4729 85.2227 17.3796 84.7693 17.2596C84.316 17.1396 83.9027 16.9596 83.5293 16.7196C83.156 16.4796 82.856 16.1596 82.6293 15.7596C82.4027 15.3463 82.2893 14.8263 82.2893 14.1996C82.2893 13.5063 82.496 12.8796 82.9093 12.3196C83.336 11.7596 83.9627 11.3129 84.7893 10.9796C85.6293 10.6329 86.6627 10.4596 87.8893 10.4596C88.6893 10.4596 89.4893 10.5329 90.2893 10.6796C91.0893 10.8263 91.776 11.0529 92.3493 11.3596L91.1093 14.3396C90.5493 14.0329 89.996 13.8263 89.4493 13.7196C88.916 13.5996 88.416 13.5396 87.9493 13.5396C87.376 13.5396 86.9827 13.5929 86.7693 13.6996C86.5693 13.8063 86.4693 13.9263 86.4693 14.0596C86.4693 14.2196 86.5827 14.3396 86.8093 14.4196C87.036 14.4996 87.336 14.5596 87.7093 14.5996C88.0827 14.6396 88.4893 14.6929 88.9293 14.7596C89.3827 14.8129 89.8293 14.9063 90.2693 15.0396C90.7227 15.1596 91.136 15.3396 91.5093 15.5796C91.8827 15.8196 92.1827 16.1463 92.4093 16.5596C92.636 16.9596 92.7493 17.4729 92.7493 18.0996C92.7493 18.7529 92.5427 19.3663 92.1293 19.9396C91.716 20.4996 91.0893 20.9529 90.2493 21.2996C89.4093 21.6329 88.356 21.7996 87.0893 21.7996Z" fill="#3a3a51"/>
<path d="M0 14.3496L11.2 -0.000391087L7 14.3495L0 14.3496Z" fill="#3a3a51"/>
<path d="M14 14.3496L2.8 28.6996L7 14.3497L14 14.3496Z" fill="#3a3a51"/>
</svg>
